# File created by Blade
# Date/Time:  Wed Jan 21 16:33:30 2015
# Frame Rate: 120.000 fps
#------------------------------------------------------
:FULLY-SPECIFIED
:DEGREES
1197
root 31.625094 4.164820 -26.170223 -72.598889 117.798989 -12.914248
Spine 65.826437 11.973402 -7.347317
Head 18.509664 -25.873815 2.057493
LeftShoulder -3.646585 4.354502 13.161980
LeftArm -45.270249 46.633888 -105.142848
LeftForeArm 32.714089 -0.000000 72.103078
LeftHand -18.473511 -0.000000 16.135692
LeftHandThumb1 -26.253704 0.000000 33.147579
RightShoulder -6.615320 -38.109086 -5.740526
RightArm 21.079755 -42.896875 64.711845
RightForeArm -34.114084 -0.000000 63.279793
RightHand -15.467248 -0.000000 -6.216074
RightHandThumb1 -24.326973 -0.000000 -32.862282
LeftUpLeg -82.940067 5.144720 -13.877129
LeftLeg 155.468788 -0.000000 -0.000000
LeftFoot -32.168374 31.469444 -7.901809
LeftToeBase 20.296175 -0.000000 -0.000000
RightUpLeg -66.530113 8.778318 8.501414
RightLeg 56.625644 -0.000000 -0.000000
RightFoot 25.084327 -33.063692 -9.941069
RightToeBase 6.927464 -0.000000 -0.000000
1198
root 31.622837 4.221655 -26.185650 -71.846320 117.832642 -12.641513
Spine 66.409338 11.912157 -6.978435
Head 17.173467 -26.485682 2.970205
LeftShoulder -3.243951 3.912118 13.251885
LeftArm -44.620399 46.957603 -105.771598
LeftForeArm 32.781923 -0.000000 70.120933
LeftHand -18.499740 -0.000000 17.725039
LeftHandThumb1 -26.253704 0.000000 33.147579
RightShoulder -6.443039 -37.790795 -5.566737
RightArm 21.747104 -43.337251 64.135234
RightForeArm -34.063621 -0.000000 62.093531
RightHand -15.746047 0.000000 -7.483535
RightHandThumb1 -24.326973 -0.000000 -32.862282
LeftUpLeg -82.981735 4.794937 -13.969791
LeftLeg 155.405435 -0.000000 -0.000000
LeftFoot -32.608002 31.514957 -8.119027
LeftToeBase 20.424922 -0.000000 -0.000000
RightUpLeg -67.882705 8.780422 8.646674
RightLeg 59.032549 -0.000000 -0.000000
RightFoot 24.207743 -33.087441 -9.715302
RightToeBase 5.923993 -0.000000 -0.000000
1199
root 31.621739 4.279679 -26.202606 -70.935032 117.797024 -12.220087
Spine 66.974658 11.709702 -6.512479
Head 15.918987 -27.054275 3.763360
LeftShoulder -2.914211 3.554584 13.245955
LeftArm -43.843413 47.436073 -106.330336
LeftForeArm 33.212857 0.000000 68.053808
LeftHand -18.541741 -0.000000 18.438781
LeftHandThumb1 -26.253704 0.000000 33.147579
RightShoulder -6.373666 -37.405107 -5.351323
RightArm 22.346175 -43.759254 63.536691
RightForeArm -33.987306 0.000000 60.923265
RightHand -15.888481 -0.000000 -8.785386
RightHandThumb1 -24.326973 -0.000000 -32.862282
LeftUpLeg -83.039113 4.393812 -13.978442
LeftLeg 155.359468 -0.000000 -0.000000
LeftFoot -33.078053 31.595445 -8.307544
LeftToeBase 20.471861 -0.000000 -0.000000
RightUpLeg -69.273856 8.766011 8.888627
RightLeg 61.477772 -0.000000 -0.000000
RightFoot 23.731138 -33.145356 -10.135514
RightToeBase 5.464676 -0.000000 -0.000000
1200
root 31.619367 4.347215 -26.223031 -70.054445 117.761435 -11.817343
Spine 67.557087 11.459405 -6.119888
Head 14.717297 -27.516744 4.524813
LeftShoulder -2.529837 3.124882 13.183704
LeftArm -42.995620 47.661935 -106.773004
LeftForeArm 33.105149 -0.000000 65.948380
LeftHand -18.332710 -0.000000 18.781443
LeftHandThumb1 -26.253704 0.000000 33.147579
RightShoulder -6.361096 -37.124131 -5.052171
RightArm 23.226639 -44.097454 62.650964
RightForeArm -33.766420 -0.000000 59.715214
RightHand -15.949194 -0.000000 -9.621543
RightHandThumb1 -24.326973 -0.000000 -32.862282
LeftUpLeg -83.014152 3.993622 -13.986352
LeftLeg 155.301379 -0.000000 -0.000000
LeftFoot -33.620265 31.649363 -8.579278
LeftToeBase 20.564935 -0.000000 -0.000000
RightUpLeg -70.640542 8.770566 9.065655
RightLeg 64.058658 -0.000000 -0.000000
RightFoot 22.643273 -33.073108 -9.836282
RightToeBase 4.767786 -0.000000 -0.000000
